<svg xmlns="http://www.w3.org/2000/svg" xmlns:xlink="http://www.w3.org/1999/xlink" width="141.348" height="45" viewBox="0 0 141.348 45"><defs><clipPath id="a"><path d="M105.3,144.5A22.5,22.5,0,1,1,82.8,122,22.514,22.514,0,0,1,105.3,144.5Z" transform="translate(-60.3 -122)"/></clipPath></defs><g transform="translate(764 -369.5)"><path d="M105.3,144.5A22.5,22.5,0,1,1,82.8,122,22.514,22.514,0,0,1,105.3,144.5Z" transform="translate(-824.3 247.5)" fill="#ffcd33"/><g transform="translate(-764 369.5)" clip-path="url(#a)"><path d="M79.346,134.579a4.15,4.15,0,0,1-4.179,4.179H48.73a4.179,4.179,0,1,1,0-8.357H75.168A4.2,4.2,0,0,1,79.346,134.579Zm-7.232,11.25a4.15,4.15,0,0,1-4.179,4.179H41.579a4.179,4.179,0,1,1,0-8.357H68.016A4.133,4.133,0,0,1,72.114,145.829ZM79.346,157a4.15,4.15,0,0,1-4.179,4.179H48.73a4.179,4.179,0,0,1,0-8.357H75.168A4.255,4.255,0,0,1,79.346,157Z" transform="translate(-55.802 -123.65)" fill="#fff"/></g><g transform="translate(-711.045 378.5)"><g transform="translate(0)"><path d="M142.593,150.214c-.161,1.366-.562,1.768-1.929,1.768H130.137v.8c0,2.732,1.607,3.857,5.384,3.857a21.358,21.358,0,0,0,4.9-.562c1.205-.321,1.527,0,1.527,1.286v.482c0,1.205-.241,1.527-1.527,1.848a19.083,19.083,0,0,1-4.9.563c-6.348,0-9.321-2.411-9.321-8.116v-3.295q0-8.2,8.438-8.2c5.3,0,8.036,2.652,8.036,7.795C142.673,149.089,142.593,149.652,142.593,150.214Zm-12.455-1.446h8.839V147.8c0-2.491-1.446-3.777-4.42-3.777-2.893,0-4.339,1.205-4.339,3.777Zm31.661,3.455c0,5.384-3.214,8.116-8.6,8.116-5.786,0-8.679-2.652-8.679-8.116v-3.214c0-5.464,2.652-8.277,7.955-8.277,2.652,0,4.5.8,5.545,2.491v-8.036c0-1.366.321-1.687,1.688-1.687h.482c1.366,0,1.688.321,1.688,1.688Zm-13.42-.08c0,3.214.964,4.5,4.741,4.5s4.821-1.366,4.821-4.5v-3.214c0-3.214-1.125-4.5-4.821-4.5s-4.741,1.366-4.741,4.5Zm19.607.8c0,2.571.964,3.7,4.339,3.7s4.259-1.125,4.259-3.7V142.821c0-1.366.321-1.688,1.688-1.688h.482c1.366,0,1.688.321,1.688,1.688v10.125c0,4.9-2.491,7.393-8.2,7.393-5.464,0-8.277-2.491-8.277-7.393V142.821c0-1.366.321-1.688,1.688-1.688h.482c1.366,0,1.688.321,1.688,1.688l.161,10.125Zm15.348-10.286c0-1.205.321-1.527,1.527-1.527h8.679c3.214,0,4.339,1.045,4.339,3.857,0,2.009-.562,3.054-2.893,4.5l-8.437,5.143c-.562.321-.8.643-.8,1.045,0,.482.4.643,1.205.643h9.4c1.205,0,1.527.321,1.527,1.527v.482c0,1.205-.321,1.527-1.527,1.527h-9.8q-4.339,0-4.339-3.857a5.1,5.1,0,0,1,2.893-4.5l8.357-5.143c.563-.4.884-.723.884-1.045,0-.4-.4-.643-1.205-.643H184.78c-1.205,0-1.527-.321-1.527-1.527Zm16.714,0c0-1.205.321-1.527,1.527-1.527h8.679c3.214,0,4.339,1.045,4.339,3.857,0,2.009-.562,3.054-2.893,4.5l-8.437,5.143c-.562.321-.8.643-.8,1.045,0,.482.4.643,1.205.643h9.4c1.205,0,1.527.321,1.527,1.527v.482c0,1.205-.321,1.527-1.527,1.527h-9.8q-4.339,0-4.339-3.857a5.1,5.1,0,0,1,2.893-4.5l8.357-5.143c.562-.4.884-.723.884-1.045,0-.4-.4-.643-1.205-.643h-8.357c-1.205,0-1.527-.321-1.527-1.527l.08-.482Z" transform="translate(-126.2 -133.5)" fill="#242424"/></g></g></g></svg>